<svg class="svg-icon" style="width: 512px;height: 512px;vertical-align: middle;fill: currentColor;overflow: hidden;" viewBox="0 0 1024 1024" version="1.1" xmlns="http://www.w3.org/2000/svg"><path d="M625.3 282.4c-11.9 0-23.9 1.4-35.8 3.5-39.8-56.8-103.4-90.6-173.4-90.6-83.7 0-159.9 50.1-193.6 125.8-90.8 17.2-158 97.1-158 190.9 0 92.1 65.5 172.4 155.7 190.8 6.4 1.3 12.9 2.3 19.5 2.9 0.7 0.1 1.4 0.1 2 0.1 10.3 0 19.2-7.8 20.2-18.3 1.1-11.2-7.1-21.1-18.2-22.2-5.2-0.5-10.3-1.3-15.4-2.3-71.4-14.6-123.2-78-123.2-150.9 0-77.4 57.7-143 134.5-152.6 6-0.9 12.1-1.2 18.3-1.3 16-0.2 32.2 2.2 47.4 7 10.7 3.4 22.1-2.6 25.5-13.3 3.4-10.7-2.6-22.1-13.3-25.5-15.3-4.8-31.5-7.5-47.5-8.4 30.7-50 86-81.9 146-81.9 51.6 0 99 22.7 131.4 61.5-38.3 15-71.7 40.9-95.7 75.1-6.5 9.2-4.3 21.9 4.9 28.3 9.2 6.5 21.9 4.3 28.3-4.9 24.1-34.2 59.6-58.3 100.1-68 13.3-3.2 26.9-4.8 40.2-4.8 94.5 0 171.4 76.9 171.4 171.4 0 76.4-51.3 144.2-124.9 164.9-5 1.5-10.2 2.7-15.4 3.7-11 2.1-18.3 12.7-16.3 23.7 1.8 9.8 10.4 16.6 20 16.6 1.2 0 2.5-0.1 3.7-0.3 6.6-1.2 13.1-2.8 19.2-4.6 90.8-25.6 154.3-109.5 154.3-204 0.3-117.2-94.9-212.3-211.9-212.3z" fill="#314056" /><path d="M747.4 201c-11.9 0-23.9 1.4-35.8 3.5-39.8-56.8-103.4-90.6-173.4-90.6-25.4 0-50.3 4.4-73.9 13.2-7.7 2.9-15.3 6.2-22.5 9.9-10 5.1-14 17.4-8.8 27.4 5.1 10 17.4 14 27.4 8.8 5.9-3 11.9-5.7 18.2-8 19.1-7.1 39.2-10.7 59.8-10.7 60.5 0 115.4 30.9 146.8 82.8 0.2 0.4 0.5 0.6 0.7 0.9 0.3 0.5 0.7 0.9 1 1.3 1.3 1.6 2.8 3 4.4 4 0.3 0.2 0.5 0.4 0.8 0.6 2 1.2 4.2 2 6.4 2.4 0.5 0.1 1 0.1 1.5 0.2 0.8 0.1 1.6 0.3 2.4 0.3 1.3 0 2.7-0.3 4-0.5 0.3-0.1 0.5 0 0.8 0 13.3-3.2 26.9-4.8 40.2-4.8 94.5 0 171.4 76.9 171.4 171.4 0 53.2-24.1 102.5-66 135.2-8.9 6.9-10.4 19.7-3.5 28.6 4 5.1 10 7.8 16.1 7.8 4.4 0 8.8-1.4 12.5-4.3 51.9-40.5 81.7-101.4 81.7-167.3-0.1-116.9-95.3-212.1-212.2-212.1z" fill="#314056" /><path d="M501.3 687.2c3.2 1.8 6.7 2.7 10.2 2.7 7 0 13.9-3.6 17.6-10.2 5.6-9.7 2.3-22.2-7.4-27.8l-30.4-17.6 30.4-17.6c9.7-5.6 13.1-18.1 7.4-27.8-5.6-9.7-18.1-13.1-27.8-7.4l-30.4 17.6v-34.8c0-11.2-9.1-20.3-20.3-20.3-11.2 0-20.3 9.1-20.3 20.3v34.8l-30.1-17.4c-9.7-5.6-22.2-2.3-27.8 7.4-5.6 9.7-2.3 22.2 7.4 27.8l30.1 17.4-30.1 17.4c-9.7 5.6-13.1 18.1-7.4 27.8 3.8 6.5 10.6 10.2 17.6 10.2 3.4 0 7-0.9 10.2-2.7l30.1-17.4v35.1c0 11.2 9.1 20.3 20.3 20.3 11.2 0 20.3-9.1 20.3-20.3v-35.1l30.4 17.6zM399.6 837l-30.4-17.6 30.4-17.5c9.7-5.6 13.1-18.1 7.4-27.8-5.6-9.7-18-13.1-27.8-7.4l-30.4 17.6v-34.8c0-11.2-9.1-20.3-20.3-20.3s-20.3 9.1-20.3 20.3v34.8l-30.1-17.4c-9.8-5.6-22.2-2.3-27.8 7.4-5.6 9.7-2.3 22.2 7.4 27.8l30.1 17.4-30.1 17.4c-9.7 5.6-13.1 18.1-7.4 27.8 3.8 6.5 10.6 10.2 17.6 10.2 3.4 0 6.9-0.9 10.2-2.7l30.1-17.4v35.1c0 11.2 9.1 20.3 20.3 20.3s20.3-9.1 20.3-20.3v-35.1l30.4 17.6c3.2 1.8 6.7 2.7 10.2 2.7 7 0 13.9-3.6 17.6-10.2 5.7-9.8 2.4-22.2-7.4-27.9zM644.2 816.7l-30.4-17.6 30.4-17.5c9.7-5.6 13.1-18.1 7.4-27.8-5.6-9.7-18-13.1-27.8-7.4L593.4 764v-34.8c0-11.2-9.1-20.3-20.3-20.3-11.2 0-20.3 9.1-20.3 20.3V764l-30.1-17.4c-9.7-5.6-22.2-2.3-27.8 7.4-5.6 9.7-2.3 22.2 7.4 27.8l30.1 17.4-30.1 17.4c-9.7 5.6-13.1 18.1-7.4 27.8 3.8 6.5 10.6 10.2 17.6 10.2 3.4 0 6.9-0.9 10.2-2.7l30.1-17.4v35.1c0 11.2 9.1 20.3 20.3 20.3 11.2 0 20.3-9.1 20.3-20.3v-35.1l30.4 17.6c3.2 1.8 6.7 2.7 10.2 2.7 7 0 13.9-3.6 17.6-10.2 5.7-9.8 2.3-22.3-7.4-27.9z" fill="#A6C4F4" /></svg>