<svg class="svg-icon" style="width: 1em;height: 1em;vertical-align: middle;fill: currentColor;overflow: hidden;" viewBox="0 0 1024 1024" version="1.1" xmlns="http://www.w3.org/2000/svg"><path d="M828.1 390.2c-2 0-4.1-0.3-6.1-0.9-10.7-3.4-16.7-14.8-13.3-25.5 5.6-17.7 8.4-36.2 8.4-54.9 0-2.4 0-4.9-0.1-7.3-24.9 17.9-55 27.7-86.6 27.7-82.1 0-148.8-66.8-148.8-148.8 0-17 2.8-33.6 8.3-49.3C509.6 150.7 451 222.8 451 308.8c0 18.7 2.8 37.2 8.4 54.9 3.4 10.7-2.6 22.1-13.3 25.5-10.7 3.3-22.1-2.6-25.5-13.3-6.8-21.7-10.2-44.2-10.2-67.1 0-120.7 94.4-218.9 214.8-223.5 8-0.3 15 3.9 18.7 10.7 3.7 6.8 3.1 15.2-1.4 21.5-13.2 18.3-20.2 40.1-20.2 62.9 0 59.6 48.5 108.1 108.1 108.1 33.4 0 64.4-15 85.1-41.3 4.8-6.1 12.6-8.9 20.2-7.3 7.6 1.6 13.6 7.4 15.5 14.9 4.4 17.4 6.6 35.6 6.6 54 0 22.9-3.5 45.5-10.3 67.1-2.7 8.8-10.7 14.3-19.4 14.3z" fill="#FF9100" /><path d="M756.1 792.8c-10.3 0-19.2-7.8-20.2-18.3-1.1-11.2 7.1-21.1 18.2-22.2 6.2-0.6 12.3-1.5 18.3-2.8 84.9-17.3 146.4-92.7 146.4-179.4 0-92-68.6-169.9-159.6-181.4-26.7-3.8-53.3-1.2-78.4 6.7-10.6 3.4-22.1-2.6-25.5-13.3-3.4-10.7 2.6-22.1 13.3-25.5 30.9-9.7 64.4-12.7 96-8.2 110.9 14 194.8 109.3 194.8 221.7 0 105.9-75.3 198.1-179 219.3-7.3 1.5-14.8 2.6-22.4 3.4h-1.9zM267.9 790.2c-1.2 0-2.5-0.1-3.7-0.3-7.6-1.4-15.1-3.2-22.4-5.3-104.3-29.5-177.3-126-177.3-234.8 0-134.6 109.5-244.1 244.1-244.1 19.1 0 38.3 2.3 57.2 6.9 57.6 13.7 108.2 48.1 142.5 96.8 6.5 9.2 4.3 21.9-4.9 28.3-9.2 6.5-21.9 4.3-28.3-4.9-28.6-40.6-70.7-69.2-118.7-80.6-15.9-3.8-31.9-5.8-47.8-5.8-112.2 0-203.4 91.2-203.4 203.4 0 90.7 60.8 171.1 147.9 195.6 6.2 1.8 12.3 3.3 18.5 4.4 11 2 18.3 12.7 16.3 23.7-1.8 9.8-10.4 16.7-20 16.7z" fill="#314056" /><path d="M504.4 654.7c-5.6-9.7-18-13.1-27.8-7.4l-30.4 17.6V630c0-11.2-9.1-20.3-20.3-20.3s-20.3 9.1-20.3 20.3v34.8l-30.1-17.4c-9.8-5.6-22.2-2.3-27.8 7.4-5.6 9.7-2.3 22.2 7.4 27.8l30.1 17.4-30.2 17.4c-9.7 5.6-13.1 18.1-7.4 27.8 3.8 6.5 10.6 10.2 17.6 10.2 3.4 0 6.9-0.9 10.2-2.7l30.1-17.4v35.1c0 11.2 9.1 20.3 20.3 20.3s20.3-9.1 20.3-20.3v-35.1l30.4 17.6c3.2 1.8 6.7 2.7 10.2 2.7 7 0 13.9-3.6 17.6-10.2 5.6-9.7 2.3-22.2-7.4-27.8L466.5 700l30.4-17.6c9.8-5.5 13.1-17.9 7.5-27.7zM704.7 865.6L674.3 848l30.4-17.5c9.7-5.6 13.1-18.1 7.4-27.8-5.6-9.7-18.1-13.1-27.8-7.4L654 812.8V778c0-11.2-9.1-20.3-20.3-20.3-11.2 0-20.3 9.1-20.3 20.3v34.8l-30.1-17.4c-9.7-5.6-22.2-2.3-27.8 7.4s-2.3 22.2 7.4 27.8L593 848l-30.1 17.4c-9.7 5.6-13.1 18.1-7.4 27.8 3.8 6.5 10.6 10.2 17.6 10.2 3.4 0 7-0.9 10.2-2.7l30.1-17.4v35.1c0 11.2 9.1 20.3 20.3 20.3 11.2 0 20.3-9.1 20.3-20.3v-35.1l30.4 17.6c3.2 1.8 6.7 2.7 10.2 2.7 7 0 13.9-3.6 17.6-10.2 5.6-9.8 2.3-22.2-7.5-27.8z" fill="#A6C4F4" /></svg>