<svg class="svg-icon" style="width: 1em;height: 1em;vertical-align: middle;fill: currentColor;overflow: hidden;" viewBox="0 0 1024 1024" version="1.1" xmlns="http://www.w3.org/2000/svg"><path d="M841.1 427.7c-0.7 0-1.4 0-2.1-0.1-11.1-1.1-19.2-11.1-18.1-22.2 1.5-14.6 1.2-29.4-0.9-44.1-14-99.5-106.3-169.1-205.8-155.1-89.8 12.6-157.2 90.4-156.9 180.9 0 11.2-9 20.3-20.2 20.3h-0.1c-11.2 0-20.2-9-20.2-20.2-0.4-110.6 82-205.7 191.7-221.1C730 148.9 843 234 860.1 355.6c2.5 17.9 2.9 36 1 53.8-0.9 10.6-9.7 18.3-20 18.3zM602.9 146.3c-9.9 0-18.6-7.3-20-17.4l-5.6-40.1c-1.6-11.1 6.1-21.3 17.2-22.9 11-1.5 21.3 6.1 22.9 17.2l5.6 40.1c1.6 11.1-6.1 21.3-17.2 22.9-1 0.2-1.9 0.2-2.9 0.2zM429.4 248.6c-4.2 0-8.5-1.3-12.2-4.1l-32.3-24.4c-8.9-6.7-10.7-19.4-4-28.4 6.7-8.9 19.4-10.7 28.4-4l32.3 24.4c8.9 6.7 10.7 19.4 4 28.4-4 5.3-10.1 8.1-16.2 8.1zM900.2 370.3c-9.9 0-18.6-7.3-20-17.4-1.6-11.1 6.2-21.3 17.2-22.9l40.1-5.6c11.1-1.6 21.3 6.2 22.9 17.2 1.6 11.1-6.2 21.3-17.2 22.9l-40.1 5.6c-1 0.2-1.9 0.2-2.9 0.2z" fill="#FF9100" /><path d="M798 196.8c-4.2 0-8.5-1.3-12.2-4.1-8.9-6.7-10.7-19.4-4-28.4l24.4-32.3c6.7-8.9 19.4-10.7 28.4-4 8.9 6.7 10.7 19.4 4 28.4l-24.4 32.3c-4 5.3-10.1 8.1-16.2 8.1z" fill="#FF9100" /><path d="M754 811.4c-10.3 0-19.1-7.8-20.1-18.3-1.1-11.1 7-21 18.2-22.1 6.2-0.6 12.3-1.5 18.2-2.7C854.7 751.1 916 676 916 589.7c0-91.5-68.3-169.2-158.8-180.6-26.9-3.8-53.1-1.2-78.1 6.7-10.6 3.3-22-2.6-25.4-13.2-3.4-10.7 2.6-22 13.2-25.4 30.7-9.6 63.9-12.7 95.6-8.2 110.5 13.9 194 108.8 194 220.7 0 105.4-74.9 197.2-178.2 218.3-7.3 1.5-14.7 2.6-22.3 3.4h-2z" fill="#314056" /><path d="M268.1 808.8c-1.2 0-2.5-0.1-3.7-0.3-7.6-1.4-15-3.2-22.3-5.3C138.3 773.9 65.6 677.8 65.6 569.5c0-134 109-243 243-243 18.9 0 38.1 2.3 57 6.8 57.3 13.6 107.7 47.9 141.8 96.3 6.4 9.1 4.2 21.8-4.9 28.2-9.1 6.4-21.8 4.2-28.2-4.9-28.4-40.4-70.4-68.9-118.1-80.3-15.8-3.8-31.8-5.7-47.6-5.7-111.6 0-202.5 90.8-202.5 202.5 0 90.3 60.5 170.3 147.2 194.7 6.2 1.8 12.3 3.3 18.4 4.4 11 2 18.3 12.6 16.2 23.6-1.7 9.9-10.2 16.7-19.8 16.7z" fill="#314056" /><path d="M503.5 674c-5.6-9.7-18-13-27.7-7.4L445.5 684v-34.6c0-11.2-9.1-20.2-20.2-20.2s-20.2 9.1-20.2 20.2V684l-30-17.3c-9.7-5.6-22.1-2.3-27.7 7.4-5.6 9.7-2.3 22.1 7.4 27.7l30 17.3-30 17.3c-9.7 5.6-13 18-7.4 27.7 3.8 6.5 10.6 10.1 17.6 10.1 3.4 0 6.9-0.9 10.1-2.7l30-17.3v34.9c0 11.2 9.1 20.2 20.2 20.2s20.2-9.1 20.2-20.2v-34.9l30.3 17.5c3.2 1.8 6.7 2.7 10.1 2.7 7 0 13.8-3.6 17.6-10.1 5.6-9.7 2.3-22.1-7.4-27.7l-30.3-17.5 30.3-17.5c9.7-5.6 13-18 7.4-27.6zM702.9 883.8l-30.3-17.5 30.3-17.5c9.7-5.6 13-18 7.4-27.7s-18-13-27.7-7.4l-30.3 17.5v-34.6c0-11.2-9.1-20.2-20.2-20.2-11.2 0-20.2 9.1-20.2 20.2v34.6l-30-17.3c-9.7-5.6-22.1-2.3-27.7 7.4-5.6 9.7-2.3 22.1 7.4 27.7l30 17.3-30 17.3c-9.7 5.6-13 18-7.4 27.7 3.8 6.5 10.6 10.1 17.6 10.1 3.4 0 6.9-0.9 10.1-2.7l30-17.3v34.9c0 11.2 9.1 20.2 20.2 20.2 11.2 0 20.2-9.1 20.2-20.2v-34.9l30.3 17.5c3.2 1.8 6.7 2.7 10.1 2.7 7 0 13.8-3.6 17.6-10.1 5.6-9.7 2.3-22.1-7.4-27.7z" fill="#A6C4F4" /></svg>